#!OML:ASF F:\VICON\USERDATA\INSTALL\Justin_Nancy\Justin_Nancy.ASF
:FULLY-SPECIFIED
:DEGREES
79
root 0.294925 18.5574 0.981616 5.54315 7.13653 -2.21809
lowerback 5.92111 2.33659 5.6128
upperback -1.72659 3.68279 2.44825
thorax -4.93342 1.6903 -0.962149
lowerneck -23.8922 -5.37491 -10.0231
upperneck 16.5608 -5.68772 7.87408
head 9.68321 -2.38559 3.53254
rclavicle 2.42517e-014 4.77083e-015
rhumerus -42.6611 10.7988 -86.05
rradius 128.399
rwrist -14.4633
rhand -3.16151 23.732
rfingers 7.12502
rthumb 22.559 -4.96998
lclavicle 2.42517e-014 4.77083e-015
lhumerus -60.373 -6.17232 94.1924
lradius 119.375
lwrist 23.4152
lhand -24.003 13.7531
lfingers 7.12502
lthumb 2.47444 43.7185
rfemur 8.86793 5.91852 29.7183
rtibia 41.9024
rfoot 14.6442 -6.52569
rtoes -3.94215
lfemur -29.4287 -1.5154 -21.4141
ltibia 21.0374
lfoot 1.98023 -6.1194
ltoes -8.51041
80
root 0.28915 18.5035 1.36092 5.26021 7.40959 -2.09134
lowerback 6.24025 2.21878 5.52198
upperback -1.5007 3.5267 2.37657
thorax -4.88626 1.61868 -0.98146
lowerneck -24.3629 -5.34667 -9.93257
upperneck 16.3543 -5.63882 7.95798
head 9.68651 -2.33622 3.55002
rclavicle 1.90833e-014 -1.59028e-014
rhumerus -42.3525 10.0434 -86.1062
rradius 127.742
rwrist -14.1522
rhand -2.76028 26.6911
rfingers 7.12502
rthumb 22.944 -1.96366
lclavicle 1.90833e-014 -1.59028e-014
lhumerus -60.1325 -6.45452 94.145
lradius 119.816
lwrist 23.6197
lhand -23.5738 13.8448
lfingers 7.12502
lthumb 2.88892 43.805
rfemur 7.9487 5.11077 29.2392
rtibia 44.934
rfoot 14.4696 -6.54954
rtoes -3.95525
lfemur -28.8097 -1.50617 -21.6875
ltibia 20.586
lfoot 2.0533 -7.99221
ltoes -8.54068
81
root 0.278865 18.4395 1.73726 4.85508 7.64719 -1.95536
lowerback 6.62135 2.14177 5.38191
upperback -1.16961 3.41931 2.30468
thorax -4.76377 1.5758 -0.977949
lowerneck -24.4313 -5.33682 -9.9476
upperneck 15.6687 -5.61565 8.14842
head 9.46126 -2.30147 3.61546
rclavicle -2.82274e-014 -6.67916e-014
rhumerus -42.0859 9.67361 -86.3892
rradius 127.473
rwrist -14.7403
rhand -3.28461 25.6357
rfingers 7.12502
rthumb 22.4408 -3.08062
lclavicle -2.82274e-014 -6.67916e-014
lhumerus -59.5463 -6.88206 94.1138
lradius 120.102
lwrist 24.0004
lhand -23.2153 13.6827
lfingers 7.12502
lthumb 3.23522 43.6379
rfemur 7.06395 4.22218 28.7209
rtibia 47.9724
rfoot 13.9043 -7.38473
rtoes -2.99441
lfemur -28.094 -1.19008 -22.0019
ltibia 20.5234
lfoot 2.63498 -10.1718
ltoes -8.42678
82
root 0.25667 18.3592 2.11304 4.31382 7.77121 -1.87899
lowerback 7.1603 2.1142 5.08425
upperback -0.82145 3.37692 2.28556
thorax -4.72102 1.56779 -0.844767
lowerneck -24.525 -5.35179 -9.937
upperneck 15.1325 -5.64004 8.33887
head 9.29815 -2.28739 3.67073
rclavicle 4.49253e-014 1.51076e-014
rhumerus -41.7896 9.43013 -86.6876
rradius 127.107
rwrist -15.2896
rhand -4.29621 23.74
rfingers 7.12502
rthumb 21.4695 -5.0903
lclavicle 4.49253e-014 1.51076e-014
lhumerus -58.8933 -7.36295 94.1501
lradius 120.228
lwrist 24.1917
lhand -22.9938 12.7943
lfingers 7.12502
lthumb 3.44905 42.7461
rfemur 6.16197 3.46214 28.3317
rtibia 51.0453
rfoot 13.2018 -8.62555
rtoes -2.84571
lfemur -27.223 -1.07532 -22.0478
ltibia 20.7315
lfoot 3.89514 -11.8863
ltoes -8.90214
83
root 0.233412 18.2636 2.47845 3.75229 7.95235 -1.71148
lowerback 8.00733 2.05101 4.72408
upperback -0.624686 3.30518 2.22124
thorax -5.0124 1.53572 -0.736233
lowerneck -24.6416 -5.38611 -10.0366
upperneck 14.7932 -5.685 8.64082
head 9.21794 -2.27704 3.78258
rclavicle -4.57205e-015 -1.27222e-014
rhumerus -41.5594 9.25023 -86.946
rradius 126.531
rwrist -15.6824
rhand -5.16003 22.9721
rfingers 7.12502
rthumb 20.6396 -5.95056
lclavicle -4.57205e-015 -1.27222e-014
lhumerus -58.4838 -7.98294 94.2094
lradius 120.391
lwrist 24.508
lhand -23.0247 12.4686
lfingers 7.12502
lthumb 3.4192 42.4209
rfemur 5.20448 2.50466 27.7846
rtibia 54.1792
rfoot 12.2865 -9.47138
rtoes -5.55006
lfemur -26.398 -1.18305 -22.1067
ltibia 21.3432
lfoot 5.85055 -12.9653
ltoes -8.00148
84
root 0.218487 18.1603 2.85116 3.14796 8.17434 -1.48044
lowerback 8.79882 1.97054 4.38487
upperback -0.473941 3.20173 2.10511
thorax -5.31662 1.48642 -0.685833
lowerneck -24.3481 -5.35252 -10.1275
upperneck 14.3059 -5.69326 9.0487
head 9.01848 -2.24789 3.93662
rclavicle -1.02374e-014 1.19271e-014
rhumerus -41.7666 8.61937 -87.274
rradius 125.964
rwrist -15.927
rhand -5.34857 23.607
rfingers 7.12502
rthumb 20.4585 -5.33516
lclavicle -1.02374e-014 1.19271e-014
lhumerus -58.0882 -8.67091 94.2511
lradius 120.495
lwrist 24.9598
lhand -23.3888 12.5853
lfingers 7.12502
lthumb 3.06762 42.5429
rfemur 4.25393 1.39964 27.0275
rtibia 57.3887
rfoot 10.8755 -10.3218
rtoes -4.50771
lfemur -25.5477 -1.55072 -22.2048
ltibia 22.444
lfoot 7.42398 -13.519
ltoes -8.385
85
root 0.205901 18.0327 3.23101 2.61151 8.23579 -1.33133
lowerback 9.15955 1.99046 4.10397
upperback -0.119189 3.20052 2.04574
thorax -5.15839 1.49933 -0.598568
lowerneck -24.0707 -5.34776 -10.1316
upperneck 13.6178 -5.70562 9.23193
head 8.74351 -2.2413 3.99284
rclavicle 1.41137e-014 -8.74653e-015
rhumerus -41.7465 7.89514 -87.4233
rradius 125.293
rwrist -16.1439
rhand -5.80208 23.7628
rfingers 7.12502
rthumb 20.0226 -5.22561
lclavicle 1.41137e-014 -8.74653e-015
lhumerus -57.1762 -9.3956 94.3438
lradius 120.478
lwrist 25.4748
lhand -23.4052 12.7173
lfingers 7.12502
lthumb 3.05175 42.6752
rfemur 3.06411 0.315686 26.1918
rtibia 60.6515
rfoot 9.57392 -11.014
rtoes -1.03548
lfemur -24.8606 -2.1445 -22.1252
ltibia 24.0665
lfoot 8.12026 -13.7035
ltoes -6.62806
86
root 0.192317 17.8883 3.60691 2.23806 8.12682 -1.12879
lowerback 9.4088 2.04591 3.67821
upperback 0.175793 3.22626 1.98485
thorax -5.00708 1.52751 -0.43207
lowerneck -23.9281 -5.32522 -10.0552
upperneck 13.2025 -5.70148 9.30557
head 8.57798 -2.23142 4.00264
rclavicle 2.9122e-014 -1.27222e-014
rhumerus -41.7784 7.41565 -87.6314
rradius 124.567
rwrist -16.3293
rhand -6.56055 23.3201
rfingers 7.12502
rthumb 19.2934 -5.74285
lclavicle 2.9122e-014 -1.27222e-014
lhumerus -56.331 -10.0901 94.3403
lradius 120.553
lwrist 26.1455
lhand -23.2826 12.8138
lfingers 7.12502
lthumb 3.1702 42.77
rfemur 1.48683 -0.633539 25.2219
rtibia 63.9218
rfoot 8.72025 -11.0327
rtoes 0.337693
lfemur -24.4556 -2.4459 -22.1637
ltibia 26.2026
lfoot 6.66497 -15.0265
ltoes -2.71647
87
root 0.173214 17.7628 3.97772 1.86882 7.90151 -1.18339
lowerback 9.9213 2.11292 3.45446
upperback 0.340032 3.31069 1.99007
thorax -5.13257 1.57314 -0.331162
lowerneck -23.8677 -5.34963 -10.0803
upperneck 13.0258 -5.75636 9.48622
head 8.52127 -2.24125 4.06001
rclavicle 2.73329e-014 7.95139e-016
rhumerus -42.0289 6.95775 -87.9347
rradius 123.938
rwrist -16.3269
rhand -7.20233 23.161
rfingers 7.12502
rthumb 18.6762 -5.96249
lclavicle 2.73329e-014 7.95139e-016
lhumerus -55.5 -10.7556 94.3581
lradius 120.454
lwrist 26.6185
lhand -23.828 12.8112
lfingers 7.12502
lthumb 2.64349 42.7746
rfemur -0.202641 -1.35974 24.6686
rtibia 67.0643
rfoot 8.24857 -10.7077
rtoes 0.569913
lfemur -24.365 -2.34575 -22
ltibia 28.7832
lfoot 2.36471 -17.4945
ltoes 2.78154
88
root 0.164975 17.6459 4.3633 1.64384 7.68857 -1.13317
lowerback 10.0487 2.20629 3.22493
upperback 0.620569 3.40286 1.97385
thorax -4.91907 1.62948 -0.23178
lowerneck -23.9292 -5.4754 -10.2475
upperneck 12.7128 -5.89136 9.72465
head 8.45349 -2.28733 4.14624
rclavicle 1.36167e-014 4.29375e-014
rhumerus -42.1694 6.36965 -88.1526
rradius 123.392
rwrist -16.4167
rhand -7.23421 23.1251
rfingers 7.12502
rthumb 18.6456 -6.00126
lclavicle 1.36167e-014 4.29375e-014
lhumerus -54.253 -11.5454 94.456
lradius 120.239
lwrist 27.1122
lhand -24.8763 13.5067
lfingers 7.12502
lthumb 1.63101 43.4802
rfemur -1.84602 -2.09188 24.0009
rtibia 70.0289
rfoot 7.5595 -10.1218
rtoes -0.773343
lfemur -24.3712 -2.52895 -21.9628
ltibia 31.6002
lfoot -1.81445 -18.5376
ltoes 7.50385
89
root 0.159415 17.4962 4.7474 1.50191 7.58219 -0.717426
lowerback 10.0685 2.22056 2.6266
upperback 0.857506 3.34052 1.854
thorax -4.7098 1.61501 -0.00937396
lowerneck -23.7764 -5.48544 -10.169
upperneck 12.346 -5.9172 9.70938
head 8.30376 -2.30212 4.12076
rclavicle -2.3059e-014 1.03368e-014
rhumerus -42.3893 5.96723 -88.4682
rradius 122.829
rwrist -16.5895
rhand -7.13832 23.0445
rfingers 7.12502
rthumb 18.7378 -6.07301
lclavicle -2.3059e-014 1.03368e-014
lhumerus -53.0902 -12.1438 94.4568
lradius 120.087
lwrist 27.5074
lhand -25.1038 14.5544
lfingers 7.12502
lthumb 1.4113 44.5294
rfemur -3.55375 -2.9648 22.8563
rtibia 72.9816
rfoot 6.11112 -9.78348
rtoes -0.945808
lfemur -23.9966 -3.1487 -22.3277
ltibia 34.4035
lfoot -5.29531 -17.9339
ltoes 10.2942
90
root 0.14819 17.34 5.10688 1.39209 7.36854 -0.453141
lowerback 10.6427 2.23581 2.21827
upperback 0.844779 3.32768 1.70935
thorax -5.05825 1.61037 0.0449874
lowerneck -23.7983 -5.4684 -10.0972
upperneck 12.3746 -5.93095 9.77937
head 8.31936 -2.29708 4.13169
rclavicle 5.66536e-014 -1.27222e-014
rhumerus -42.8771 5.64533 -89.0269
rradius 122.248
rwrist -16.8268
rhand -6.74959 23.1181
rfingers 7.12502
rthumb 19.1116 -5.96294
lclavicle 5.66536e-014 -1.27222e-014
lhumerus -52.2212 -12.7361 94.4605
lradius 120.079
lwrist 27.9473
lhand -24.9406 14.7218
lfingers 7.12502
lthumb 1.56895 44.6958
rfemur -5.67736 -3.65581 21.9719
rtibia 75.9784
rfoot 5.21607 -9.61292
rtoes -0.61667
lfemur -23.6601 -3.55283 -22.651
ltibia 37.0448
lfoot -8.91173 -16.5294
ltoes 7.14818
91
root 0.137334 17.2091 5.45581 1.29367 7.1708 -0.0355726
lowerback 11.6043 2.23676 1.74212
upperback 0.757785 3.28925 1.49345
thorax -5.70109 1.5908 0.0488775
lowerneck -24.2528 -5.47009 -10.1077
upperneck 12.5805 -5.93636 9.96858
head 8.47254 -2.26716 4.19916
rclavicle -4.92986e-014 -1.82882e-014
rhumerus -43.3708 5.31544 -89.6096
rradius 121.613
rwrist -16.9596
rhand -6.49013 22.9889
rfingers 7.12502
rthumb 19.3611 -6.06728
lclavicle -4.92986e-014 -1.82882e-014
lhumerus -51.3685 -13.3909 94.5084
lradius 120.169
lwrist 28.3472
lhand -24.3734 13.9753
lfingers 7.12502
lthumb 2.11674 43.9446
rfemur -7.92807 -4.45965 20.88
rtibia 78.8698
rfoot 4.88805 -9.26782
rtoes -0.968268
lfemur -23.3807 -3.6223 -23.3255
ltibia 39.3638
lfoot -11.587 -14.6694
ltoes 5.12136
92
root 0.125097 17.0732 5.80904 1.10488 7.10151 0.856676
lowerback 12.3937 2.14075 0.706627
upperback 0.867928 3.01895 1.21579
thorax -6.06575 1.47747 0.354344
lowerneck -24.8166 -5.43319 -10.1297
upperneck 12.81 -5.88457 10.1951
head 8.64787 -2.20337 4.29151
rclavicle 9.44227e-015 -7.95139e-016
rhumerus -43.5065 5.40587 -90.1478
rradius 120.668
rwrist -16.7709
rhand -7.55249 22.2375
rfingers 7.12502
rthumb 18.3394 -6.91796
lclavicle 9.44227e-015 -7.95139e-016
lhumerus -50.0115 -13.7727 94.4251
lradius 120.055
lwrist 28.7687
lhand -23.5447 13.5996
lfingers 7.12502
lthumb 2.91703 43.5594
rfemur -9.9374 -5.62703 19.0878
rtibia 81.6527
rfoot 4.10976 -8.49792
rtoes -1.51335
lfemur -22.4869 -3.59896 -24.5976
ltibia 41.2434
lfoot -13.9004 -12.3367
ltoes 4.57894
